<?xml version="1.0" encoding="UTF-8" standalone="no"?>
<!-- Created with Inkscape (http://www.inkscape.org/) -->

<svg
   width="297mm"
   height="210mm"
   viewBox="0 0 1122.5197 793.70081"
   version="1.1"
   id="svg1"
   inkscape:version="1.4.3 (0d15f75042, 2025-12-25)"
   sodipodi:docname="map.svg"
   inkscape:export-filename="../../Pictures/siren_vector_map.png"
   inkscape:export-xdpi="96"
   inkscape:export-ydpi="96"
   xmlns:inkscape="http://www.inkscape.org/namespaces/inkscape"
   xmlns:sodipodi="http://sodipodi.sourceforge.net/DTD/sodipodi-0.dtd"
   xmlns:xlink="http://www.w3.org/1999/xlink"
   xmlns="http://www.w3.org/2000/svg"
   xmlns:svg="http://www.w3.org/2000/svg">
  <sodipodi:namedview
     id="namedview1"
     pagecolor="#ffffff"
     bordercolor="#000000"
     borderopacity="0.25"
     inkscape:showpageshadow="2"
     inkscape:pageopacity="0.0"
     inkscape:pagecheckerboard="true"
     inkscape:deskcolor="#d1d1d1"
     inkscape:document-units="mm"
     showgrid="false"
     inkscape:zoom="0.68510089"
     inkscape:cx="425.48478"
     inkscape:cy="397.75164"
     inkscape:window-width="1920"
     inkscape:window-height="987"
     inkscape:window-x="0"
     inkscape:window-y="0"
     inkscape:window-maximized="1"
     inkscape:current-layer="layer13">
    <inkscape:grid
       id="grid1"
       units="mm"
       originx="0"
       originy="0"
       spacingx="3.7795277"
       spacingy="3.7795276"
       empcolor="#0099e5"
       empopacity="0.30196078"
       color="#0099e5"
       opacity="0.14901961"
       empspacing="5"
       enabled="true"
       visible="false" />
  </sodipodi:namedview>
  <defs
     id="defs1">
    <filter
       style="color-interpolation-filters:sRGB"
       id="filter107"
       inkscape:label="filter1" />
  </defs>
  <g
     inkscape:groupmode="layer"
     id="layer10"
     inkscape:label="Bg"
     style="display:inline">
    <rect
       style="opacity:1;fill:#000080;stroke:none;stroke-width:1.75748;stroke-dasharray:7.02992, 1.75748;stroke-dashoffset:0;stroke-opacity:1;paint-order:normal"
       id="rect10"
       width="1122.5197"
       height="793.70081"
       x="0"
       y="0" />
  </g>
  <g
     inkscape:label="Land"
     inkscape:groupmode="layer"
     id="layer1"
     style="display:inline"
     inkscape:highlight-color="#ffffff">
    <path
       style="opacity:1;fill:#0000cd;stroke:#000000;stroke-width:6.6708663;stroke-dasharray:none;stroke-dashoffset:0;stroke-opacity:1;paint-order:normal;stroke-linejoin:miter;stroke-linecap:butt;stroke-miterlimit:4.4"
       d="m 151.1811,245.66931 56.69291,56.69291 56.69293,18.89764 37.79527,37.79528 56.69291,37.79527 v 37.79528 37.79528 l 18.89764,18.89763 18.89764,37.79528 18.89764,56.69291 56.69291,18.89764 h 94.48819 l 56.69291,18.89764 56.69292,-18.89764 75.59055,18.89764 56.69291,18.89765 75.59055,18.89764 37.79528,37.79527 v 18.89764 l 37.79527,37.79528 h 56.69287 l 75.5906,37.79528 26.4567,-2e-5 V 94.876539 L 1096.063,75.590555 h -56.6929 L 982.67717,56.692916 H 963.77953 L 925.98426,37.795277 907.08662,56.692916 869.29135,75.590555 755.90552,132.28347 h -94.48819 -94.48819 l -151.1811,18.89764 h -56.69292 l -94.48818,56.69291 -37.79528,-18.89764 h -18.89765 l -18.89763,-18.89764 -18.89764,18.89764 -18.89764,18.89764 z"
       id="path2" />
  </g>
  <g
     inkscape:groupmode="layer"
     id="layer7"
     inkscape:label="Commune">
    <path
       style="opacity:1;fill:#0000ff;stroke:#ffffff;stroke-width:4.78110592;stroke-dasharray:19.12442398, 4.78110599;stroke-dashoffset:0;stroke-opacity:1;paint-order:normal"
       d="m 359.05512,151.18111 -94.48818,56.69291 37.79527,37.79529 h 75.59055 v -56.69293 z"
       id="path7" />
  </g>
  <g
     inkscape:groupmode="layer"
     id="layer8"
     inkscape:label="Corpo">
    <a
       id="a2490">
      <path
         style="opacity:1;fill:#0000ff;stroke:#ffffff;stroke-width:4.78110592;stroke-dasharray:19.12442398, 4.78110599;stroke-dashoffset:0;stroke-opacity:1;paint-order:normal"
         d="m 604.72441,359.05514 75.59056,-37.79528 h 75.59055 l -18.89764,37.79528 -94.48818,75.59055 v -37.79528 z"
         id="path8" />
    </a>
  </g>
  <g
     inkscape:groupmode="layer"
     id="layer9"
     inkscape:label="Nomads">
    <path
       style="opacity:1;fill:#0000ff;stroke:#ffffff;stroke-width:4.78110592;stroke-dasharray:19.12442398, 4.78110599;stroke-dashoffset:0;stroke-opacity:1;paint-order:normal"
       d="m 1001.5748,132.28347 -37.79527,37.79527 -18.89763,37.79528 18.89763,56.69293 18.89764,37.79527 v 56.69292 l 56.69293,37.79527 h 94.4882 V 132.28347 Z"
       id="path9" />
  </g>
  <g
     inkscape:groupmode="layer"
     id="layer3"
     inkscape:label="GCG"
     style="display:inline"
     inkscape:highlight-color="#3721f3">
    <a
       id="a2488"
       xlink:href="c_gcg.html"
       xlink:title="General Colonial Government"
       target=""
       xlink:show="new">
      <path
         style="opacity:1;fill:#0000ff;stroke:#ffffff;stroke-width:4.78110592;stroke-dasharray:19.12442398, 4.78110599;stroke-dashoffset:0;stroke-opacity:1;paint-order:normal"
         d="m 566.92914,604.72443 18.89763,-113.38583 56.69293,-56.69291 94.48818,-75.59055 18.89764,-37.79528 94.48819,-18.89764 56.69291,56.69292 56.69291,75.59055 -56.69291,37.79528 -75.59055,37.79527 -18.89764,56.69292 v 75.59056 l -56.69291,-18.89765 -75.59055,-18.89764 -56.69292,18.89764 z"
         id="path3" />
    </a>
  </g>
  <g
     inkscape:groupmode="layer"
     id="layer4"
     inkscape:label="FRA"
     style="display:inline"
     inkscape:highlight-color="#edf31c">
    <a
       id="a2491"
       xlink:href="c_far.html"
       xlink:show="new"
       xlink:title="Free Anda Republic">
      <path
         style="opacity:1;fill:#0000ff;stroke:#ffffff;stroke-width:4.78110592;stroke-dasharray:19.12442398, 4.78110599;stroke-dashoffset:0;stroke-opacity:1;paint-order:normal"
         d="M 755.90552,321.25986 H 680.31497 L 642.5197,283.46458 604.72441,226.77167 v -56.69293 l 18.89764,-37.79527 H 755.90552 L 869.29135,75.590555 h 56.69291 v 56.692915 l -37.79528,56.69291 -18.89763,75.59057 -18.89764,37.79527 z"
         id="path6" />
    </a>
  </g>
  <g
     inkscape:groupmode="layer"
     id="layer5"
     inkscape:label="Militia"
     style="display:inline"
     inkscape:highlight-color="#3bee43">
    <path
       style="opacity:1;fill:#0000ff;stroke:#ffffff;stroke-width:4.78110592;stroke-dasharray:19.12442398, 4.78110599;stroke-dashoffset:0;stroke-opacity:1;paint-order:normal"
       d="m 888.18898,661.41736 56.69292,-37.79529 18.89763,-56.69291 -37.79527,-18.89764 v -37.79528 l -56.69291,-18.89764 -37.79528,18.89764 -18.89764,56.69292 v 75.59056 z"
       id="path5" />
  </g>
  <g
     inkscape:groupmode="layer"
     id="layer6"
     inkscape:label="Nuclear Authority"
     style="display:inline"
     inkscape:highlight-color="#3be0ee">
    <a
       id="a2489"
       xlink:href="c_ana.html"
       target=""
       xlink:title="Andan Nuclear Authority"
       xlink:show="new">
      <path
         style="opacity:1;fill:#0000ff;stroke:#ffffff;stroke-width:4.78110592;stroke-dasharray:19.12442398, 4.78110599;stroke-dashoffset:0;stroke-opacity:1;paint-order:normal"
         d="m 585.82677,491.3386 -56.69291,-37.79527 18.89764,-75.59056 56.69291,-18.89763 37.79529,37.79527 v 37.79528 z"
         id="path4" />
    </a>
  </g>
  <g
     inkscape:groupmode="layer"
     id="layer2"
     inkscape:label="Layer 2"
     style="display:none">
    <path
       style="display:inline;fill:#ffffff;stroke-width:0.972198;stroke-dasharray:3.88879204, 0.97219801;stroke-dashoffset:0"
       d="m 1084.25,811.68519 c -0.4446,-1.707 -0.4814,-3.55847 -1.3337,-5.12098 -0.1579,-0.28934 -2.5878,-1.06624 -2.9193,-1.3796 -0.344,-0.32518 0.2176,-0.96829 0,-1.37961 -1.8345,-3.4678 -12.7928,-12.69994 -16.056,-16.55528 -7.8944,-9.32694 -16.6854,-23.15901 -29.1928,-27.59213 -13.6117,-4.8245 -29.7031,-4.0451 -43.78923,-6.89804 -3.4635,-0.70147 -6.75396,-2.05773 -10.21745,-2.7592 -8.78461,-1.77921 -18.01293,-1.61461 -26.2735,-5.51843 -17.82533,-8.42399 -18.04601,-13.20416 -27.73314,-27.59213 -1.67259,-2.48425 -3.89237,-4.59869 -5.83856,-6.89804 -0.97309,-2.29934 -1.57123,-4.77448 -2.91927,-6.89803 -1.60287,-2.52497 -4.26879,-4.35455 -5.83856,-6.89803 -1.86706,-3.02518 -2.62218,-6.57361 -4.37892,-9.65725 -1.66339,-2.91978 -4.0707,-5.41321 -5.83855,-8.27763 -7.50695,-12.16344 -12.4788,-21.98617 -21.89459,-33.11057 -0.67964,-0.80297 -0.69034,-2.03209 -1.45964,-2.75921 -5.01659,-4.74153 -12.83382,3.15545 -17.51567,4.13883 -4.27464,0.89783 -8.75783,0 -13.13675,0 -13.07304,0 -25.09555,-0.32919 -37.95061,-2.75923 -4.86547,-0.91973 -9.9505,-1.11253 -14.59639,-2.75921 -1.64258,-0.58219 -2.76649,-2.10607 -4.37892,-2.75922 -6.54739,-2.65216 -4.53659,-0.0745 -10.21747,-2.7592 -4.12017,-1.94714 -7.34155,-5.2589 -11.67712,-6.89804 -5.82474,-2.20215 -11.80959,-2.82182 -17.51566,-5.51843 -14.45848,-6.83285 -28.79797,-18.47283 -45.24881,-20.69409 -23.63052,-3.19069 -41.4955,12.31134 -64.22412,15.17567 -13.23529,1.66794 -36.60286,0.59826 -49.62774,-2.75921 -4.62308,-1.19171 -8.59073,-4.08618 -13.13675,-5.51843 -15.48164,-4.87759 -31.89453,-6.7016 -48.16809,-5.51842 -12.30599,0.8947 -24.20665,4.55086 -36.49097,5.51842 -8.57508,0.67541 -16.45862,-1.3796 -24.81387,-1.3796 -5.02339,0 -14.69823,2.02128 -18.97531,0 -9.37409,-4.43006 -37.80884,-14.90768 -42.32953,-23.45332 -0.68711,-1.29888 -2.76572,-11.69075 -2.91928,-12.41645 -2.98495,-14.10646 -3.39743,-40.82208 -10.21747,-52.42505 -4.56294,-7.76295 -10.87309,-15.79534 -17.51567,-22.07371 -8.16627,-7.71851 -22.72481,-17.12469 -24.81386,-28.97173 -2.19567,-12.4517 2.56429,-23.86388 4.37892,-35.86977 0.75688,-5.00772 0,-10.11711 0,-15.17567 0,-4.04452 1.2965,-8.94309 -1.45964,-12.41646 -4.32076,-5.44513 -9.11406,-9.47795 -14.59639,-13.79606 -2.64299,-2.08174 -4.54588,-4.94698 -7.2982,-6.89804 -5.00657,-3.54905 -8.14641,-2.95964 -13.13675,-4.13882 -1.32413,-0.31288 -3.12223,-2.16532 -4.37892,-2.75921 -1.37616,-0.65035 -3.17747,-0.47115 -4.37891,-1.3796 -1.36986,-1.03581 -1.67883,-2.96639 -2.91928,-4.13883 -2.7875,-2.63466 -7.50652,-4.33572 -10.21748,-6.89802 -0.76929,-0.72712 -0.69034,-2.03211 -1.45963,-2.75922 -4.10086,-3.87601 -9.28237,-6.6652 -13.13676,-11.03686 -2.36702,-2.68468 -3.85276,-5.46227 -5.83855,-8.27763 -2.77385,-3.93265 -7.19747,-7.23097 -10.21748,-11.03685 -1.77258,-2.23386 -0.68703,-2.73226 -2.91927,-4.13883 -8.61536,-5.42864 -19.81136,-6.11042 -29.19278,-9.65724 -4.04055,-1.5276 -7.73359,-3.77901 -11.67712,-5.51843 -3.35779,-1.48105 -7.32402,-1.95097 -10.21747,-4.13882 -3.57978,-2.7068 -9.80934,-15.64536 -13.13675,-19.31448 -2.61013,-2.87818 -11.06764,-9.08119 -14.5964,-12.41646 -2.43141,-2.29811 -8.23356,-9.53674 -10.21747,-11.03686 -9.10742,-6.88644 -21.60863,-8.97449 -29.19279,-17.93488 -4.01415,-4.74259 -2.16662,-32.44234 2.91928,-37.24939 0.34404,-0.32518 1.02446,0.20566 1.45964,0 1.20909,-0.57139 11.31181,-7.58708 11.67711,-8.27763 1.53591,-2.9034 4.92414,-6.20011 5.83856,-9.65725 0.23601,-0.89227 -0.30772,-1.88668 0,-2.75921 0.008,-0.0228 14.55649,-12.39765 14.59639,-12.41646 1.05495,-0.49856 15.05897,12.56219 18.97532,13.79607 3.73344,1.17624 16.87077,-11.34163 20.43494,-9.65726 8.7022,4.11253 17.7012,9.16619 26.27351,13.79607 1.22086,0.65939 5.32979,3.6737 7.29819,4.13882 6.71473,1.58664 12.29812,-7.19151 17.51567,-9.65724 4.58489,-2.16676 8.62652,-4.46207 13.13675,-6.89804 6.72329,-3.63123 13.21878,-4.79941 20.43495,-6.89803 10.39067,-3.02183 20.43272,-7.52436 30.65242,-11.03685 3.13469,-1.07739 14.93159,-3.71922 17.51567,-5.51843 3.67556,-2.55917 6.74914,-5.81206 10.12371,-8.7181 7.32945,-0.77291 14.62661,-1.90204 21.98834,-2.31875 6.31379,-0.35739 12.65943,0.32269 18.97531,0 37.12354,-1.89665 74.00494,-7.22926 110.93257,-11.03685 5.70962,-0.58871 64.05047,-6.40696 74.44159,-6.89803 8.74691,-0.41337 17.51969,0.25072 26.27351,0 15.00444,-0.42975 30.18218,-2.39679 45.24881,-1.37961 9.73433,0.65719 19.47856,2.14711 29.19278,2.75921 10.68031,0.67299 21.40804,0 32.11206,0 5.83856,0 11.73579,0.78043 17.51567,0 9.70066,-1.30982 23.19473,-9.25665 30.65242,-12.41645 7.75374,-3.28524 15.63305,-6.3042 23.35422,-9.65725 27.12566,-11.779776 55.74698,-22.31149 80.28015,-38.62898 12.40271,-8.249279 26.66308,-23.890266 42.32954,-27.59213 2.83211,-0.669208 5.83855,0 8.75783,0 16.15007,0 24.14905,7.430744 39.41026,11.036853 18.88479,4.462322 39.24342,5.15823 58.38562,8.277639 6.865,1.118721 13.534,3.239154 20.4349,4.138819 13.5925,1.772023 30.3571,-0.09304 43.7892,4.138819 4.1002,1.291809 6.8285,4.762589 10.2175,6.898034 3.6209,2.281588 7.6153,4.041876 11.6771,5.518425 5.4572,1.983862 27.9271,5.238624 29.1928,12.41646 0.9598,5.443341 0,11.036851 0,16.555271 0,20.29429 -2.2008,40.38834 -1.4597,60.70269 0.7379,20.22564 2.0092,38.90856 0,59.32308 -4.0539,41.19051 -14.254,81.47502 -17.5156,122.78498 -1.8871,23.89955 -1.4597,61.05055 -1.4597,85.53561 0,28.51187 -1.0766,57.0419 0,85.5356 1.3371,35.38615 5.2748,70.84844 7.2982,106.2297 1.1344,19.83622 0.5278,19.95957 4.3789,37.24938 2.4785,11.12708 8.8668,29.93932 5.8386,41.3882 -1.0555,3.99038 -3.8924,7.3579 -5.8386,11.03685 -7.5776,14.32435 -16.6077,26.61141 -27.7331,38.62899 -5.3885,5.82065 -7.0599,13.20485 -11.6771,19.31448 -1.1998,1.58765 -3.4558,2.39375 -4.3789,4.13882 -1.9836,3.74954 -0.815,10.42754 -4.379,13.79607 -1.2451,1.17689 -5.0799,1.12246 -4.3789,4.13882 0.7638,3.28654 2.8353,6.1732 4.253,9.2598 z"
       id="path1" />
  </g>
  <g
     inkscape:groupmode="layer"
     id="layer13"
     inkscape:label="Layer 3"
     style="display:none">
    <a
       id="a2487"
       style="stroke:#ffffff;stroke-width:2.51339;stroke-dasharray:none;stroke-dashoffset:0;stroke-opacity:0.170541">
      <path
         d="M 0,0 V 793.70082 M 20.000001,0 V 793.70082 M 40.000002,0 V 793.70082 M 60.000002,0 V 793.70082 M 80.000003,0 V 793.70082 M 100,0 V 793.70082 M 120,0 V 793.70082 M 140.00001,0 V 793.70082 M 160.00001,0 V 793.70082 M 180.00001,0 V 793.70082 M 200.00001,0 V 793.70082 M 220.00001,0 V 793.70082 M 240.00001,0 V 793.70082 M 260.00001,0 V 793.70082 M 280.00001,0 V 793.70082 M 300.00001,0 V 793.70082 M 320.00001,0 V 793.70082 M 340.00001,0 V 793.70082 M 360.00001,0 V 793.70082 M 380.00002,0 V 793.70082 M 400.00002,0 V 793.70082 M 420.00002,0 V 793.70082 M 440.00002,0 V 793.70082 M 460.00002,0 V 793.70082 M 480.00002,0 V 793.70082 M 500.00002,0 V 793.70082 M 520.00002,0 V 793.70082 M 540.00002,0 V 793.70082 M 560.00002,0 V 793.70082 M 580.00002,0 V 793.70082 M 600.00002,0 V 793.70082 M 620.00003,0 V 793.70082 M 640.00003,0 V 793.70082 M 660.00003,0 V 793.70082 M 680.00003,0 V 793.70082 M 700.00003,0 V 793.70082 M 720.00003,0 V 793.70082 M 740.00003,0 V 793.70082 M 760.00003,0 V 793.70082 M 780.00003,0 V 793.70082 M 800.00003,0 V 793.70082 M 820.00003,0 V 793.70082 M 840.00003,0 V 793.70082 M 860.00004,0 V 793.70082 M 880.00004,0 V 793.70082 M 900.00004,0 V 793.70082 M 920.00004,0 V 793.70082 M 940.00004,0 V 793.70082 M 960.00004,0 V 793.70082 M 980.00004,0 V 793.70082 M 1000,0 V 793.70082 M 1020,0 V 793.70082 M 1040,0 V 793.70082 M 1060,0 V 793.70082 M 1080,0 V 793.70082 M 1100,0 V 793.70082 M 1120,0 V 793.70082 M 0,0 H 1122.5197 M 0,20.000001 H 1122.5197 M 0,40.000002 H 1122.5197 M 0,60.000002 H 1122.5197 M 0,80.000003 H 1122.5197 M 0,100 H 1122.5197 M 0,120 H 1122.5197 M 0,140.00001 H 1122.5197 M 0,160.00001 H 1122.5197 M 0,180.00001 H 1122.5197 M 0,200.00001 H 1122.5197 M 0,220.00001 H 1122.5197 M 0,240.00001 H 1122.5197 M 0,260.00001 H 1122.5197 M 0,280.00001 H 1122.5197 M 0,300.00001 H 1122.5197 M 0,320.00001 H 1122.5197 M 0,340.00001 H 1122.5197 M 0,360.00001 H 1122.5197 M 0,380.00002 H 1122.5197 M 0,400.00002 H 1122.5197 M 0,420.00002 H 1122.5197 M 0,440.00002 H 1122.5197 M 0,460.00002 H 1122.5197 M 0,480.00002 H 1122.5197 M 0,500.00002 H 1122.5197 M 0,520.00002 H 1122.5197 M 0,540.00002 H 1122.5197 M 0,560.00002 H 1122.5197 M 0,580.00002 H 1122.5197 M 0,600.00002 H 1122.5197 M 0,620.00003 H 1122.5197 M 0,640.00003 H 1122.5197 M 0,660.00003 H 1122.5197 M 0,680.00003 H 1122.5197 M 0,700.00003 H 1122.5197 M 0,720.00003 H 1122.5197 M 0,740.00003 H 1122.5197 M 0,760.00003 H 1122.5197 M 0,780.00003 h 1122.5197"
         style="display:inline;fill:#fffaf0;stroke:#ffffff;stroke-width:2.51339;stroke-dasharray:none;stroke-dashoffset:0;stroke-opacity:0.170541"
         id="path2487" />
    </a>
  </g>
</svg>
